<?xml version="1.0" encoding="UTF-8"?>
<!DOCTYPE svg PUBLIC "-//W3C//DTD SVG 1.1//EN" "http://www.w3.org/Graphics/SVG/1.1/DTD/svg11.dtd">
<!-- Creator: CorelDRAW -->
<svg xmlns="http://www.w3.org/2000/svg" xml:space="preserve" width="512px" height="512px" style="shape-rendering:geometricPrecision; text-rendering:geometricPrecision; image-rendering:optimizeQuality; fill-rule:evenodd; clip-rule:evenodd"
viewBox="0 0 173.923 173.923"
 xmlns:xlink="http://www.w3.org/1999/xlink">
 <defs>
  <style type="text/css">
   <![CDATA[
    .fil0 {fill:#0A0B0C}
   ]]>
  </style>
 </defs>
 <g id="Layer_x0020_1">
  <metadata id="CorelCorpID_0Corel-Layer"/>
  <path class="fil0" d="M-0 0l47.2143 0 79.4947 0 21.103 0 26.1105 26.1105 0 147.812 -173.923 0 0 -173.923zm95.6709 22.7219l10.2153 0 0 35.9427 -10.2153 0 0 -35.9427zm-58.0904 136.918l0 -52.1376 97.6272 0 0 52.1376 -97.6272 0zm110.484 0l0 -66.0569 -122.583 0 0 66.0569 -12.3329 0 0 -146.113 34.0666 0 0 65.9687 79.4947 0 0 -65.9687 17.6213 0 16.0662 16.0662 0 130.047 -12.3325 0zm-33.3677 -146.113l0 54.3343 -55.4689 0 0 -54.3343 55.4689 0z"/>
 </g>
</svg>
